<svg width="16" height="16" viewBox="0 0 16 16" fill="none" xmlns="http://www.w3.org/2000/svg">
<rect width="16" height="16" fill="#102654"/>
<path d="M11.3059 11.75C12.6059 11.75 12.9309 11.0188 12.9309 10.125V6.875C12.9309 5.98125 12.6059 5.25 11.3059 5.25C10.0059 5.25 9.68091 5.98125 9.68091 6.875V10.125C9.68091 11.0188 10.0059 11.75 11.3059 11.75Z" stroke="white" stroke-width="1.5" stroke-linecap="round" stroke-linejoin="round"/>
<path d="M5.69409 11.75C4.39409 11.75 4.06909 11.0188 4.06909 10.125V6.875C4.06909 5.98125 4.39409 5.25 5.69409 5.25C6.99409 5.25 7.31909 5.98125 7.31909 6.875V10.125C7.31909 11.0188 6.99409 11.75 5.69409 11.75Z" stroke="white" stroke-width="1.5" stroke-linecap="round" stroke-linejoin="round"/>
<path d="M7.31909 8.5H9.68076" stroke="white" stroke-width="1.5" stroke-linecap="round" stroke-linejoin="round"/>
<path d="M14.1875 9.85433V7.146" stroke="white" stroke-width="1.5" stroke-linecap="round" stroke-linejoin="round"/>
<path d="M2.8125 9.85433V7.146" stroke="white" stroke-width="1.5" stroke-linecap="round" stroke-linejoin="round"/>
</svg>
